Coordinates
version=1
nRows=16
nColumns=38
inDegrees=no

Units are S.I. units (second, meters, Newtons, ...)
If the header above contains a line with 'inDegrees', this indicates whether rotational values are in degrees (yes) or radians (no).

endheader
time	pelvis_tilt	pelvis_list	pelvis_rotation	pelvis_tx	pelvis_ty	pelvis_tz	hip_flexion_r	hip_adduction_r	hip_rotation_r	knee_angle_r	ankle_angle_r	subtalar_angle_r	mtp_angle_r	hip_flexion_l	hip_adduction_l	hip_rotation_l	knee_angle_l	ankle_angle_l	subtalar_angle_l	mtp_angle_l	lumbar_extension	lumbar_bending	lumbar_rotation	arm_flex_r	arm_add_r	arm_rot_r	elbow_flex_r	pro_sup_r	wrist_flex_r	wrist_dev_r	arm_flex_l	arm_add_l	arm_rot_l	elbow_flex_l	pro_sup_l	wrist_flex_l	wrist_dev_l
1.55	-0.0937466	1.43411	-1.33385	0.671437	0.274743	0.94229	0.239089	-0.0593154	-0.0521672	0.14231	-0.278387	0	0	-0.31307	0.00320196	-0.0723121	0.130969	-0.127173	0	0	-0.389009	0.123312	-0.0439713	-0.190074	-0.495685	0.443448	0.767741	0.92179	0	0	-0.0888549	-0.200634	0.107404	0.581806	1.43367	0	0
1.56	-0.0962578	1.4357	-1.33026	0.670913	0.265539	0.940699	0.230107	-0.0582011	-0.0509741	0.105622	-0.284037	0	0	-0.318767	0.000534903	-0.07607	0.139114	-0.111938	0	0	-0.393968	0.124412	-0.0754691	-0.159153	-0.50045	0.483083	0.763129	0.925027	0	0	-0.1193	-0.15584	-0.081522	0.598414	1.5708	0	0
1.57	-0.0964261	1.43543	-1.3288	0.670344	0.256403	0.939312	0.227025	-0.0576183	-0.0525437	0.099116	-0.286209	0	0	-0.32754	-0.00178026	-0.0745152	0.143174	-0.114217	0	0	-0.392412	0.124951	-0.0707118	-0.16907	-0.497879	0.467329	0.765068	0.932493	0	0	-0.116108	-0.157034	-0.0710894	0.592575	1.5708	0	0
1.58	-0.101509	1.43404	-1.3223	0.669798	0.247313	0.938011	0.228834	-0.0560156	-0.0571714	0.117242	-0.265997	0	0	-0.333537	-0.00545307	-0.0781205	0.156444	-0.097869	0	0	-0.393607	0.126663	-0.0768004	-0.16417	-0.500762	0.478901	0.765583	0.928103	0	0	-0.12241	-0.154093	-0.0838203	0.596769	1.5708	0	0
1.59	-0.108567	1.43152	-1.31394	0.669211	0.238135	0.936925	0.231247	-0.05315	-0.060971	0.146024	-0.254966	0	0	-0.341523	-0.00943766	-0.0792874	0.167324	-0.0900801	0	0	-0.395326	0.129112	-0.0772331	-0.166548	-0.501483	0.476746	0.767556	0.930782	0	0	-0.123912	-0.152634	-0.0854732	0.596638	1.5708	0	0
1.6	-0.117211	1.42828	-1.30412	0.668541	0.228838	0.936007	0.234441	-0.049066	-0.0634318	0.183759	-0.24616	0	0	-0.350288	-0.0140889	-0.0802333	0.178506	-0.0837446	0	0	-0.397643	0.131899	-0.0778223	-0.168833	-0.501884	0.473482	0.769201	0.932361	0	0	-0.125821	-0.151294	-0.0870198	0.596617	1.5708	0	0
1.61	-0.125175	1.42352	-1.29464	0.667795	0.219406	0.935371	0.233479	-0.0435066	-0.062833	0.216789	-0.249053	0	0	-0.360971	-0.0193206	-0.0799946	0.188506	-0.0832298	0	0	-0.401074	0.134971	-0.0780381	-0.170967	-0.503204	0.473156	0.771204	0.928816	0	0	-0.127246	-0.151004	-0.085399	0.595762	1.5708	0	0
1.62	-0.131788	1.41989	-1.28608	0.666989	0.209779	0.934725	0.234943	-0.0381477	-0.0651197	0.254987	-0.233589	0	0	-0.369504	-0.0246938	-0.0803998	0.201107	-0.0784316	0	0	-0.40315	0.137447	-0.0804964	-0.171766	-0.504042	0.474685	0.772287	0.927639	0	0	-0.130365	-0.150187	-0.0880881	0.595513	1.5708	0	0
1.63	-0.138335	1.41636	-1.27687	0.666162	0.199981	0.934272	0.23274	-0.0326482	-0.0653798	0.279489	-0.226154	0	0	-0.377694	-0.0305691	-0.0796677	0.213735	-0.0759643	0	0	-0.404653	0.140054	-0.0837567	-0.172474	-0.504228	0.476204	0.772426	0.927198	0	0	-0.133969	-0.149846	-0.0898236	0.595397	1.5708	0	0
1.64	-0.146525	1.41321	-1.26552	0.665299	0.190032	0.934034	0.228709	-0.0274484	-0.0652406	0.293355	-0.230419	0	0	-0.384584	-0.0370999	-0.0785162	0.227741	-0.0750732	0	0	-0.405426	0.143051	-0.0879124	-0.172868	-0.504048	0.477951	0.771975	0.927229	0	0	-0.137655	-0.149198	-0.0925854	0.594272	1.5708	0	0
1.65	-0.159285	1.41025	-1.24929	0.664394	0.179907	0.934077	0.221373	-0.0214355	-0.0642302	0.295376	-0.251823	0	0	-0.389666	-0.0448875	-0.0781055	0.244532	-0.075276	0	0	-0.404221	0.147136	-0.0829617	-0.186549	-0.499172	0.454708	0.773786	0.939923	0	0	-0.13296	-0.150823	-0.0787371	0.584287	1.5708	0	0
1.66	-0.173741	1.40655	-1.23078	0.663468	0.169623	0.934384	0.208544	-0.0144239	-0.0615476	0.286123	-0.284833	0	0	-0.394291	-0.0539019	-0.0781127	0.263065	-0.0801331	0	0	-0.405303	0.15156	-0.100996	-0.168108	-0.505906	0.49456	0.769473	0.920309	0	0	-0.146921	-0.145153	-0.10847	0.591012	1.5708	0	0
1.67	-0.189993	1.40466	-1.21092	0.662386	0.159074	0.934677	0.197725	-0.00751589	-0.0595987	0.281282	-0.303655	0	0	-0.396141	-0.0628264	-0.0774792	0.283014	-0.0859491	0	0	-0.402265	0.155536	-0.104446	-0.170558	-0.504445	0.494199	0.76763	0.921943	0	0	-0.150148	-0.144325	-0.110704	0.58772	1.5708	0	0
1.68	-0.211323	1.4038	-1.18658	0.661147	0.148365	0.93499	0.189219	-1.06204e-05	-0.0576996	0.280423	-0.320243	0	0	-0.394632	-0.0726042	-0.07788	0.307201	-0.0930303	0	0	-0.397334	0.159528	-0.106989	-0.173478	-0.502966	0.494364	0.765219	0.924002	0	0	-0.153121	-0.143633	-0.112243	0.582852	1.5708	0	0
1.69	-0.237092	1.40367	-1.1586	0.659826	0.137558	0.935347	0.183609	0.00783179	-0.0551323	0.285157	-0.333493	0	0	-0.390386	-0.0823063	-0.0773256	0.334077	-0.100611	0	0	-0.3913	0.163638	-0.10852	-0.176848	-0.501662	0.494473	0.762849	0.925733	0	0	-0.155801	-0.142904	-0.113308	0.577206	1.5708	0	0
1.7	-0.265665	1.40346	-1.12828	0.658435	0.126644	0.935762	0.179427	0.0156879	-0.0527508	0.294251	-0.345494	0	0	-0.384421	-0.0921165	-0.0754546	0.363237	-0.109183	0	0	-0.384879	0.167985	-0.109329	-0.180689	-0.500657	0.494625	0.760898	0.927549	0	0	-0.159002	-0.142657	-0.113252	0.572262	1.5708	0	0
